<svg id="visual" viewBox="0 0 900 450" width="900" height="450" xmlns="http://www.w3.org/2000/svg" xmlns:xlink="http://www.w3.org/1999/xlink" version="1.1"><rect x="0" y="0" width="900" height="450" fill="#620606"></rect><path d="M0 304L21.5 303.7C43 303.3 86 302.7 128.8 301C171.7 299.3 214.3 296.7 257.2 297.2C300 297.7 343 301.3 385.8 298C428.7 294.7 471.3 284.3 514.2 284.8C557 285.3 600 296.7 642.8 299.7C685.7 302.7 728.3 297.3 771.2 293.3C814 289.3 857 286.7 878.5 285.3L900 284L900 451L878.5 451C857 451 814 451 771.2 451C728.3 451 685.7 451 642.8 451C600 451 557 451 514.2 451C471.3 451 428.7 451 385.8 451C343 451 300 451 257.2 451C214.3 451 171.7 451 128.8 451C86 451 43 451 21.5 451L0 451Z" fill="#540000"></path><path d="M0 333L21.5 332.2C43 331.3 86 329.7 128.8 331.5C171.7 333.3 214.3 338.7 257.2 344C300 349.3 343 354.7 385.8 352.8C428.7 351 471.3 342 514.2 334.5C557 327 600 321 642.8 325.3C685.7 329.7 728.3 344.3 771.2 342.2C814 340 857 321 878.5 311.5L900 302L900 451L878.5 451C857 451 814 451 771.2 451C728.3 451 685.7 451 642.8 451C600 451 557 451 514.2 451C471.3 451 428.7 451 385.8 451C343 451 300 451 257.2 451C214.3 451 171.7 451 128.8 451C86 451 43 451 21.5 451L0 451Z" fill="#6d1215"></path><path d="M0 346L21.5 344C43 342 86 338 128.8 343.8C171.7 349.7 214.3 365.3 257.2 364.3C300 363.3 343 345.7 385.8 345.2C428.7 344.7 471.3 361.3 514.2 369.5C557 377.7 600 377.3 642.8 374.8C685.7 372.3 728.3 367.7 771.2 361.5C814 355.3 857 347.7 878.5 343.8L900 340L900 451L878.5 451C857 451 814 451 771.2 451C728.3 451 685.7 451 642.8 451C600 451 557 451 514.2 451C471.3 451 428.7 451 385.8 451C343 451 300 451 257.2 451C214.3 451 171.7 451 128.8 451C86 451 43 451 21.5 451L0 451Z" fill="#882424"></path><path d="M0 383L21.5 383C43 383 86 383 128.8 384.8C171.7 386.7 214.3 390.3 257.2 386.5C300 382.7 343 371.3 385.8 365.8C428.7 360.3 471.3 360.7 514.2 368C557 375.3 600 389.7 642.8 390.5C685.7 391.3 728.3 378.7 771.2 377.2C814 375.7 857 385.3 878.5 390.2L900 395L900 451L878.5 451C857 451 814 451 771.2 451C728.3 451 685.7 451 642.8 451C600 451 557 451 514.2 451C471.3 451 428.7 451 385.8 451C343 451 300 451 257.2 451C214.3 451 171.7 451 128.8 451C86 451 43 451 21.5 451L0 451Z" fill="#a33535"></path><path d="M0 396L21.5 401.5C43 407 86 418 128.8 422.7C171.7 427.3 214.3 425.7 257.2 423.2C300 420.7 343 417.3 385.8 415.5C428.7 413.7 471.3 413.3 514.2 414.3C557 415.3 600 417.7 642.8 420.2C685.7 422.7 728.3 425.3 771.2 424.7C814 424 857 420 878.5 418L900 416L900 451L878.5 451C857 451 814 451 771.2 451C728.3 451 685.7 451 642.8 451C600 451 557 451 514.2 451C471.3 451 428.7 451 385.8 451C343 451 300 451 257.2 451C214.3 451 171.7 451 128.8 451C86 451 43 451 21.5 451L0 451Z" fill="#bf4646"></path></svg>